<svg xmlns="http://www.w3.org/2000/svg" width="1200" height="900" viewBox="0 0 1200 900">
  <defs>
    <linearGradient id="table" x1="0" x2="1" y1="0" y2="1">
      <stop offset="0" stop-color="#0a1020"/>
      <stop offset="0.58" stop-color="#1c3151"/>
      <stop offset="1" stop-color="#05070a"/>
    </linearGradient>
    <radialGradient id="lamp" cx="34%" cy="12%" r="72%">
      <stop offset="0" stop-color="#82a7ff" stop-opacity="0.42"/>
      <stop offset="1" stop-color="#82a7ff" stop-opacity="0"/>
    </radialGradient>
    <filter id="shadow" x="-20%" y="-20%" width="140%" height="140%">
      <feDropShadow dx="0" dy="24" stdDeviation="24" flood-color="#000" flood-opacity="0.45"/>
    </filter>
    <pattern id="grain" width="24" height="24" patternUnits="userSpaceOnUse">
      <path d="M0 7h24M0 19h24" stroke="#fff" stroke-opacity="0.035" stroke-width="1"/>
      <path d="M8 0v24M20 0v24" stroke="#000" stroke-opacity="0.06" stroke-width="1"/>
    </pattern>
  </defs>
  <rect width="1200" height="900" fill="url(#table)"/>
  <rect width="1200" height="900" fill="url(#lamp)"/>
  <rect width="1200" height="900" fill="url(#grain)"/>
  <g opacity="0.2" stroke="#82a7ff" stroke-width="2">
    <path d="M118 738 C270 610 390 790 526 655 S783 522 1038 672" fill="none"/>
    <path d="M98 206 L1090 126M152 788 L1120 704"/>
  </g>
  <g transform="translate(155 105) rotate(-2)" filter="url(#shadow)">
    <rect x="0" y="0" width="890" height="655" rx="24" fill="#eef3ff" opacity="0.94"/>
    <rect x="30" y="28" width="830" height="598" rx="15" fill="none" stroke="#82a7ff" stroke-opacity="0.5" stroke-width="3"/>
    <rect x="55" y="56" width="205" height="42" rx="21" fill="#82a7ff" opacity="0.22"/>
    <text x="76" y="84" font-family="Arial, sans-serif" font-size="24" font-weight="700" fill="#0a1020">CLUE 03</text>
    <text x="720" y="84" font-family="Arial, sans-serif" font-size="24" font-weight="700" fill="#0a1020" text-anchor="end">证词</text>
    <circle cx="714" cy="266" r="96" fill="none" stroke="#82a7ff" stroke-width="14" opacity="0.68"/>
    <path d="M654 246 q60 -74 142 -34 q-34 54 -4 104 q-70 -18 -110 -70" fill="none" stroke="#82a7ff" stroke-linecap="round" stroke-linejoin="round" stroke-width="18" opacity="0.82"/>
    <g font-family="Arial, 'PingFang SC', sans-serif" fill="#0a1020">
      <text x="74" y="220" font-size="58" font-weight="800">原始广播磁带</text>
      <line x1="74" x2="604" y1="365" y2="365" stroke="#82a7ff" stroke-opacity="0.45" stroke-width="4"/>
      <text x="76" y="424" font-size="32" font-weight="600" opacity="0.82">磁带里傅博士在 21:17 呼叫：『</text><text x="76" y="468" font-size="32" font-weight="600" opacity="0.82">逃生门打不开，调度权限被锁。』这与官</text>
      <text x="76" y="570" font-size="22" opacity="0.58">归墟列车失踪案</text>
    </g>
  </g>
  <g transform="translate(850 650) rotate(5)">
    <rect x="0" y="0" width="195" height="66" rx="8" fill="#000" opacity="0.28"/>
    <text x="97" y="43" font-family="Arial, sans-serif" font-size="22" font-weight="700" fill="#82a7ff" text-anchor="middle">EVIDENCE</text>
  </g>
</svg>